# xmcd
#
# Track frame offsets:
#	150
#	11151
#	24908
#	41596
#	53281
#	70566
#	83090
#	98847
#	111158
#	128792
#	142093
#	155691
#	174945
#	189691
#	203302
#	218620
#	230574
#
# Disc length: 3338 seconds
#
# Revision: 1
# Processed by: cddbd v1.5.2PL0 Copyright (c) Steve Scherf et al.
# Submitted via: audiograbber 1.83.01
#
DISCID=d60d0811
DTITLE=Cypress Grove - I'll Turn Your Money Green
DYEAR=2000
DGENRE=Blues
TTITLE0=I'll Turn Your Money Green - Furry Lewis
TTITLE1=Ride and Roll - Brownie McGhee
TTITLE2=Stack'o Lee - Traditional
TTITLE3=Wonderful Affliction - Paula Geremia
TTITLE4=Love In Vain - Robert Johnson
TTITLE5=I Crave My Pigmeat - Blind Boy Fuller
TTITLE6=Bootlegger's Blues - Mississippi Sheiks
TTITLE7=Stray Dog Shuffle - Paul Geremia
TTITLE8=Keep Your Hands Off - Big Bill Broonzy
TTITLE9=Key To The Highway - Jazz Gillum
TTITLE10=Poker Woman Blues - Blind Blake
TTITLE11=Whinin' Boy - Jerry Roll Morton
TTITLE12=Ragged and Dirty - Willie Brown
TTITLE13=Sportin' Life Blues - Brownie McGhee
TTITLE14=Ain't No Tellin' - Mississippi John Hurt
TTITLE15=Nobody Loves You - Keb' Mo
TTITLE16=St. James Infirmary - Traditional
EXTD=YEAR: 2000
EXTT0=
EXTT1=
EXTT2=
EXTT3=
EXTT4=
EXTT5=
EXTT6=
EXTT7=
EXTT8=
EXTT9=
EXTT10=
EXTT11=
EXTT12=
EXTT13=
EXTT14=
EXTT15=
EXTT16=
PLAYORDER=
